<?xml version="1.0" standalone="no"?>
<!DOCTYPE svg PUBLIC "-//W3C//DTD SVG 20010904//EN"
 "http://www.w3.org/TR/2001/REC-SVG-20010904/DTD/svg10.dtd">
<svg version="1.0" xmlns="http://www.w3.org/2000/svg"
 width="60.000000pt" height="54.000000pt" viewBox="0 0 60.000000 54.000000"
 preserveAspectRatio="xMidYMid meet">

<g transform="translate(0.000000,54.000000) scale(0.100000,-0.100000)"
fill="#000000" stroke="none">
<path d="M166 524 c-10 -9 -16 -33 -16 -59 l0 -44 -67 -3 -68 -3 -3 -134 c-2
-90 1 -138 9 -147 7 -8 31 -14 60 -14 l49 0 0 -52 1 -53 47 53 47 52 102 0
c87 0 104 3 112 17 5 10 10 67 10 128 1 60 4 111 7 114 3 3 4 -38 3 -92 -2
-96 -1 -99 27 -128 l29 -31 5 48 c4 42 8 49 34 55 16 5 33 14 37 21 5 7 9 66
9 131 0 165 12 157 -229 157 -159 0 -192 -3 -205 -16z m282 -129 c-3 -3 -9 2
-12 12 -6 14 -5 15 5 6 7 -7 10 -15 7 -18z m-208 -70 c0 -12 -16 -15 -80 -15
-64 0 -80 3 -80 15 0 12 16 15 80 15 64 0 80 -3 80 -15z m138 -57 c-4 -10 -45
-14 -151 -16 -126 -2 -147 0 -147 13 0 13 22 15 151 15 116 0 150 -3 147 -12z
m0 -60 c-4 -10 -45 -14 -151 -16 -126 -2 -147 0 -147 13 0 13 22 15 151 15
116 0 150 -3 147 -12z"/>
</g>
</svg>
