<?xml version="1.0" standalone="no"?><svg version="1.0" xmlns="http://www.w3.org/2000/svg" viewBox="0 0 25 25"><path d="M11.3.7c.9.2 2.3.2 3 0 .6-.3-.1-.5-1.8-.5-1.6 0-2.2.2-1.2.5zM3.4 4.2L1.5 6.5l2.3-1.9C5.9 2.8 6.5 2 5.7 2c-.2 0-1.2 1-2.3 2.2zM20.5 4c1 1.1 2 2 2.3 2 .3 0-.3-.9-1.3-2s-2-2-2.3-2c-.3 0 .3.9 1.3 2zM9.5 13c0 3.7.4 6 1.1 6 .6 0 .9-1 .7-2.4-.4-1.9 0-2.5 1.8-2.9 2.4-.4 2.4-.4.2-.6-3.2-.2-3.2-4.8 0-5.4 1.7-.3 1.6-.5-.8-.6l-3-.1v6zM.2 12.5c0 1.6.2 2.2.5 1.2.2-.9.2-2.3 0-3-.3-.6-.5.1-.5 1.8zM24.2 12.5c0 1.6.2 2.2.5 1.2.2-.9.2-2.3 0-3-.3-.6-.5.1-.5 1.8zM3.5 21c1 1.1 2 2 2.3 2 .3 0-.3-.9-1.3-2s-2-2-2.3-2c-.3 0 .3.9 1.3 2zM20.4 21.2l-1.9 2.3 2.3-1.9c2.1-1.8 2.7-2.6 1.9-2.6-.2 0-1.2 1-2.3 2.2zM11.3 24.7c.9.2 2.3.2 3 0 .6-.3-.1-.5-1.8-.5-1.6 0-2.2.2-1.2.5z"/></svg>