<svg version="1.0" xmlns="http://www.w3.org/2000/svg" viewBox="0 0 48 34"><path d="M17.8 12.8c-2.6 6.4-5 12.5-5.4 13.5-.6 1.5.2 1.7 7.5 1.7 6.4 0 8.1-.3 8.1-1.4 0-.8 1.1-2.7 2.4-4.2 3.3-3.9 8.9-3.9 12.2 0 1.3 1.5 2.4 3.4 2.4 4.2 0 2.1 1.8 1.7 2.5-.7 1.1-3.5-.3-6.5-4.4-9.2-2.6-1.7-5.3-5-7.6-9.2L31.8 1h-9.3l-4.7 11.8zm11.8-9c1.9 1.3 5.6 8.1 4.9 9.2-.7 1.1-12.7 1.4-13.8.4-.7-.7 1.7-7 3.4-9.1 1.2-1.4 3.8-1.7 5.5-.5zM9.8 5.7c1.8.2 4.5.2 6 0s0-.4-3.3-.4-4.5.2-2.7.4zM1 13c0 .5 2.5 1 5.5 1s5.5-.5 5.5-1c0-.6-2.5-1-5.5-1S1 12.4 1 13zM8.3 21.7c.9.2 2.3.2 3 0 .6-.3-.1-.5-1.8-.5-1.6 0-2.2.2-1.2.5z"/><path d="M33 25c-2.4 2.4-2.4 2.9-.4 5.8 1.7 2.4 5.3 2.9 7.2 1 1.9-1.9 1.5-6.6-.7-7.8-2.8-1.4-3.8-1.3-6.1 1z"/></svg>