<svg version="1.0" xmlns="http://www.w3.org/2000/svg" viewBox="0 0 75 35"><path d="M32.3 1.5c-3.8 1.6-5.3 4.2-5.3 9 0 2.5.8 4.3 2.5 6 2.1 2.2 3.3 2.5 9 2.5H45v-6.1c0-7.3-1.1-9.6-5.5-11.5-4-1.6-3.2-1.7-7.2.1zm7.1 5.1c3.1 3 .9 8.4-3.4 8.4-2.4 0-5-2.6-5-5s2.6-5 5-5c1 0 2.6.7 3.4 1.6z"/><path d="M35 10c0 .5.5 1 1 1 .6 0 1-.5 1-1 0-.6-.4-1-1-1-.5 0-1 .4-1 1zM.8 28.1c-.1 3.4 0 6.3.5 6.6.4.2.7-.5.7-1.6 0-1.7.6-2.1 3-2.1 5.1 0 6.3-6.5 1.4-8.4-4.4-1.7-5.2-.9-5.6 5.5zm6.7-1c0 1.9-.6 2.5-2.7 2.7-2.5.3-2.8 0-2.8-2.6 0-3.6.7-4.3 3.3-3.3 1.4.5 2.2 1.7 2.2 3.2zM26.3 28.5c0 3.8.2 6 .4 4.7.2-1.2 1-2.2 1.7-2.2.8 0 2.1 1 3.1 2.2 1.6 2.2 1.6 2.2 0-.5-1.5-2.7-1.5-3 .1-4.8.9-1 1.3-1.9.8-1.9s-1.5.9-2.2 2c-1.9 3.1-3.1 2.4-3.5-2.3-.2-2.5-.4-1.3-.4 2.8zM12.3 30.5c0 2.7.2 3.8.4 2.2.2-1.5.2-3.7 0-5-.2-1.2-.4 0-.4 2.8zM17.2 27.2c-3.3 3.3.7 9.3 4.6 6.8 1.6-1.1 1.5-1.1-.2-.6-2.3.8-4.6-1-4.6-3.5 0-1.9 3.3-3.5 5.1-2.3.8.4.9.3.5-.4-.9-1.5-3.9-1.5-5.4 0z"/></svg>