<svg xmlns="http://www.w3.org/2000/svg" viewBox="0 0 400 771.084"><path d="M273.735.497c-1.988.23-5.783.658-8.434.95-8.102.894-19.874 3.048-26.747 4.895a723.128 723.128 0 01-4.578 1.218c-7.641 1.956-21.081 7.179-28.916 11.236-28.058 14.528-46.837 33.062-64.212 63.373-1.096 1.912-6.514 12.905-7.957 16.144-5.744 12.896-10.512 29.586-12.941 45.301-2.492 16.119-2.476 15.64-2.711 79.157l-.222 59.639H0v137.349h117.108V771.084h142.651V419.759H378.27l.239-1.566c.275-1.805.964-7.269 1.747-13.856a748.53 748.53 0 011.191-9.397c.643-4.781 1.217-9.356 2.193-17.47.278-2.319.813-6.494 1.188-9.277.716-5.309 1.27-9.732 2.175-17.35a748.53 748.53 0 011.191-9.397c.675-5.029 1.389-10.648 2.156-16.987.249-2.055.794-6.339 1.211-9.519.417-3.181.964-7.465 1.216-9.52.832-6.794 1.462-11.623 2.178-16.71.389-2.763.708-5.311.708-5.662 0-.527-11.89-.638-67.952-.638h-67.952v-46.062c0-64.695.437-68.391 10.073-85.216 4.766-8.322 16.163-15.464 29.96-18.775 14.548-3.491 25.872-4.164 70.058-4.164h30.154l-.123-61.305-.122-61.305-4.578-.554c-2.518-.304-7.506-.813-11.085-1.131a1511.07 1511.07 0 01-11.084-1.028c-6.378-.627-17.428-1.406-27.952-1.971-11.711-.63-66.686-.939-71.325-.402" fill-rule="evenodd"/></svg>