<?xml version="1.0" standalone="no"?>
<!DOCTYPE svg PUBLIC "-//W3C//DTD SVG 20010904//EN"
 "http://www.w3.org/TR/2001/REC-SVG-20010904/DTD/svg10.dtd">
<svg version="1.0" xmlns="http://www.w3.org/2000/svg"
 width="55.000000pt" height="55.000000pt" viewBox="0 0 55.000000 55.000000"
 preserveAspectRatio="xMidYMid meet">

<g transform="translate(0.000000,55.000000) scale(0.100000,-0.100000)"
fill="#000000" stroke="none">
<path d="M70 542 c0 -6 5 -14 10 -17 17 -10 11 -44 -9 -55 -27 -14 -29 -13
-44 16 -10 20 -15 23 -20 12 -7 -19 12 -57 35 -72 42 -26 109 39 82 81 -14 22
-54 48 -54 35z"/>
<path d="M387 442 l-97 -97 27 -29 c23 -24 24 -26 6 -17 -12 6 -24 16 -27 23
-4 9 -10 6 -22 -9 -9 -13 -22 -23 -28 -23 -7 0 -17 -5 -24 -12 -9 -9 -6 -18
14 -39 26 -27 54 -29 54 -3 0 7 10 20 22 28 54 38 228 210 228 226 0 18 -30
50 -46 50 -5 0 -53 -44 -107 -98z"/>
<path d="M440 110 c-28 -28 -25 -64 7 -89 32 -26 38 -22 21 14 -11 24 -10 29
7 41 26 19 32 18 49 -13 l15 -28 1 31 c0 57 -60 84 -100 44z"/>
</g>
</svg>
