<svg xmlns="http://www.w3.org/2000/svg" viewBox="0 0 100 125"><path style="text-indent:0;text-transform:none;block-progression:tb" d="M18.688 9c-1.571.082-2.927 1.585-2.845 3.156C15.925 13.727 17.43 15.082 19 15h10.938v34H19c-1.585-.022-3.043 1.415-3.043 3s1.458 3.022 3.043 3h10.938v10h-11.25c-1.571.082-2.927 1.585-2.845 3.156C15.925 69.727 17.43 71.082 19 71h10.938v17c-.023 1.585 1.414 3.043 3 3.043 1.585 0 3.022-1.458 3-3.043V71H65c1.585.022 3.043-1.415 3.043-3S66.585 64.978 65 65H35.937V55H61c12.69 0 23-10.31 23-23S73.69 9 61 9H18.687zm17.25 6H61c9.47 0 17 7.53 17 17 0 9.47-7.53 17-17 17H35.937z" overflow="visible" color="#000"/></svg>