<svg id="svg" version="1.1" xmlns="http://www.w3.org/2000/svg" xmlns:xlink="http://www.w3.org/1999/xlink" width="400" height="398.00000000000006" viewBox="0, 0, 400,398.00000000000006"><g id="svgg"><path id="path0" d="M108.060 55.993 C 81.657 57.441,59.459 78.257,55.933 104.876 C 55.159 110.719,54.954 289.643,55.716 294.527 C 59.601 319.442,77.873 338.245,102.186 342.346 L 107.264 343.203 199.801 343.203 C 304.202 343.203,293.490 343.526,306.269 339.986 C 306.706 339.865,308.945 338.821,311.244 337.667 C 326.807 329.853,337.303 317.133,341.780 300.658 L 343.284 295.124 343.400 203.781 C 343.531 100.322,343.596 102.539,340.166 93.532 C 332.671 73.852,319.140 62.145,297.711 56.798 L 294.328 55.953 202.388 55.908 C 151.821 55.883,109.373 55.921,108.060 55.993 M217.898 115.837 C 250.066 117.593,265.283 129.931,265.250 154.229 C 265.228 170.181,258.427 181.577,244.408 189.155 C 242.458 190.209,242.972 190.615,248.576 192.448 C 268.470 198.954,278.367 214.517,276.267 235.993 C 273.786 261.361,255.224 277.650,224.795 281.162 C 218.947 281.837,143.944 282.142,143.546 281.493 C 142.978 280.568,143.121 116.167,143.689 115.808 C 144.506 115.291,208.363 115.316,217.898 115.837 M185.517 146.613 C 185.193 147.004,185.095 151.903,185.170 164.026 L 185.274 180.896 195.316 181.002 C 214.512 181.205,220.735 177.753,222.552 165.893 C 223.910 157.032,219.706 149.876,211.741 147.492 C 207.490 146.220,186.429 145.514,185.517 146.613 M185.512 210.090 C 184.739 210.616,184.297 248.896,185.048 250.298 L 185.529 251.198 199.730 251.039 C 221.801 250.791,228.493 247.992,232.309 237.413 C 233.335 234.569,233.343 225.161,232.322 222.236 C 230.325 216.514,224.240 211.929,216.725 210.484 C 213.973 209.955,186.225 209.605,185.512 210.090 " stroke="none" fill="#4f7299" fill-rule="evenodd"></path><path id="path1" d="M0.000 199.005 L 0.000 398.010 200.000 398.010 L 400.000 398.010 400.000 199.005 L 400.000 0.000 200.000 0.000 L 0.000 0.000 0.000 199.005 M297.711 56.798 C 319.140 62.145,332.671 73.852,340.166 93.532 C 343.596 102.539,343.531 100.322,343.400 203.781 L 343.284 295.124 341.780 300.658 C 337.303 317.133,326.807 329.853,311.244 337.667 C 308.945 338.821,306.706 339.865,306.269 339.986 C 293.490 343.526,304.202 343.203,199.801 343.203 L 107.264 343.203 102.186 342.346 C 77.873 338.245,59.601 319.442,55.716 294.527 C 54.954 289.643,55.159 110.719,55.933 104.876 C 59.459 78.257,81.657 57.441,108.060 55.993 C 109.373 55.921,151.821 55.883,202.388 55.908 L 294.328 55.953 297.711 56.798 M143.689 115.808 C 143.121 116.167,142.978 280.568,143.546 281.493 C 143.944 282.142,218.947 281.837,224.795 281.162 C 255.224 277.650,273.786 261.361,276.267 235.993 C 278.367 214.517,268.470 198.954,248.576 192.448 C 242.972 190.615,242.458 190.209,244.408 189.155 C 258.427 181.577,265.228 170.181,265.250 154.229 C 265.283 129.931,250.066 117.593,217.898 115.837 C 208.363 115.316,144.506 115.291,143.689 115.808 M203.582 146.464 C 218.019 147.367,224.391 153.893,222.552 165.893 C 220.735 177.753,214.512 181.205,195.316 181.002 L 185.274 180.896 185.170 164.026 C 185.095 151.903,185.193 147.004,185.517 146.613 C 186.063 145.955,194.357 145.887,203.582 146.464 M216.725 210.484 C 224.240 211.929,230.325 216.514,232.322 222.236 C 233.343 225.161,233.335 234.569,232.309 237.413 C 228.493 247.992,221.801 250.791,199.730 251.039 L 185.529 251.198 185.048 250.298 C 184.297 248.896,184.739 210.616,185.512 210.090 C 186.225 209.605,213.973 209.955,216.725 210.484 " stroke="none" fill="#f5f5f5" fill-rule="evenodd"></path></g></svg>