<?xml version="1.0" ?><svg viewBox="0 0 4335 4335" xmlns="http://www.w3.org/2000/svg" shape-rendering="geometricPrecision" text-rendering="geometricPrecision" image-rendering="optimizeQuality" fill-rule="evenodd" clip-rule="evenodd"><path d="M736 18h2884c387 0 704 317 704 704v2884c0 387-317 704-704 704H736c-387 0-704-317-704-704V722C32 335 349 18 736 18z" fill="#356396"/><path d="M2960 2542c0 97-18 182-55 256-37 73-86 134-148 182-74 57-155 99-242 123-88 25-200 37-336 37h-783V1186h691c144 0 253 5 326 17 74 11 144 34 209 69 70 38 122 88 157 151s52 136 52 218c0 95-24 180-72 254-47 74-114 129-198 164v11c121 26 217 77 289 155 73 78 109 184 109 317zm-629-804c0-31-8-64-24-97s-41-57-76-72c-32-14-70-22-115-23-44-1-110-2-198-2h-34v414h62c84 0 142-1 176-3s68-11 104-28c39-18 66-43 81-76 15-32 22-70 22-113zm124 796c0-61-12-107-37-142-25-34-61-60-110-77-30-12-71-18-123-19s-122-2-210-2h-90v489h26c128 0 216-1 265-3s99-13 150-35c44-19 77-47 98-85 21-37 31-79 31-126z" fill="#fefefe" fill-rule="nonzero"/></svg>