<svg version="1.0" xmlns="http://www.w3.org/2000/svg" viewBox="0 0 35 35"><path d="M6.4 1.8c-.6.4-1.5 1.8-1.9 3.2-.4 1.3-1.7 3.7-2.7 5.1-1.7 2.3-2 4-1.7 12.3C.4 29.6.9 32.3 2 33c.8.5 6.9 1 13.6 1 12.7 0 14.4-.5 14.4-4.7 0-1.2.9-2.7 2-3.3 3.8-2 3.4-10-.5-10-.9 0-1.5-1-1.5-2.6 0-4.5-5.2-8.5-13.8-10.5C7.4.7 7.9.8 6.4 1.8zm10 3C26.7 7.4 26.2 9 15.1 9 5.7 9 5 8.7 6.6 4.6c.8-2 1.3-2 9.8.2zm11.4 8.4c.3 2.6.1 2.8-3.5 2.8-4.6 0-6.3 1.4-6.3 5s1.7 5 6.2 5c3.6 0 3.8.2 3.8 3v3.1l-12.8-.3-12.7-.3-.3-9.9c-.2-7.3.1-10.2 1-10.8.7-.4 6.5-.7 12.8-.6l11.5.3.3 2.7zm4.7 8.3v3h-12l-.3-3.3-.3-3.3 6.3.3c6.3.3 6.3.3 6.3 3.3z"/><path d="M22.5 21c-.3.5-.1 1 .4 1 .6 0 1.1-.5 1.1-1 0-.6-.2-1-.4-1-.3 0-.8.4-1.1 1z"/></svg>